<?xml version="1.0" encoding="UTF-8" standalone="no"?>
<svg xmlns:dc="http://purl.org/dc/elements/1.1/" xmlns:cc="http://creativecommons.org/ns#" xmlns:rdf="http://www.w3.org/1999/02/22-rdf-syntax-ns#" xmlns:svg="http://www.w3.org/2000/svg" xmlns="http://www.w3.org/2000/svg" xmlns:sodipodi="http://sodipodi.sourceforge.net/DTD/sodipodi-0.dtd" xmlns:inkscape="http://www.inkscape.org/namespaces/inkscape" version="1.1" width="175.123" height="81.874001" viewBox="0 0 175.123 81.874001" id="svg2" inkscape:version="0.48.2 r9819" sodipodi:docname="AJAX.svg" style="enable-background:new">
  <metadata id="metadata34">
    <rdf:RDF>
      <cc:Work rdf:about="">
        <dc:format>image/svg+xml</dc:format>
        <dc:type rdf:resource="http://purl.org/dc/dcmitype/StillImage"/>
      </cc:Work>
    </rdf:RDF>
  </metadata>
  <sodipodi:namedview pagecolor="#ffffff" bordercolor="#666666" borderopacity="1" objecttolerance="10" gridtolerance="10" guidetolerance="10" inkscape:pageopacity="0" inkscape:pageshadow="2" inkscape:window-width="1280" inkscape:window-height="1004" id="namedview32" showgrid="false" fit-margin-top="0" fit-margin-left="0" fit-margin-right="0" fit-margin-bottom="0" inkscape:zoom="3.3367876" inkscape:cx="79.516248" inkscape:cy="31.154314" inkscape:window-x="-8" inkscape:window-y="-8" inkscape:window-maximized="1" inkscape:current-layer="svg2"/>
  <defs id="defs4"/>
  <path d="m 57.214999,0.005 -45.292,64.693 h 23.797 l 12.862,-18.377 16.88,0.005 12.269,-17.529 -16.883,0.02 8.456,-12.089 c 14.24,0 24.867,-8.243 33.286001,-16.728 L 57.214999,0.005 z" id="path6" style="fill:#000000;stroke:none" inkscape:connector-curvature="0"/>
  <polygon points="148.433,59.463 148.544,59.298 117.416,57.23 117.561,57.058 151.673,54.835 151.789,54.667 116.124,52.374 102.932,71.201 141.936,68.735 142.052,68.575 110.883,66.502 111.002,66.34 145.181,64.107 145.304,63.926 114.171,61.87 114.269,61.698 " id="polygon8" style="fill:#ed1f24;stroke:none" transform="translate(-8.877001,-6.503)"/>
  <polygon points="161.361,41.009 161.476,40.851 112.654,38.923 112.718,38.763 164.58,36.417 164.668,36.274 115.859,34.313 115.957,34.171 167.796,31.82 167.894,31.669 119.065,29.73 119.173,29.579 171.015,27.219 171.126,27.061 122.287,25.125 122.402,24.964 174.232,22.637 174.338,22.471 125.502,20.537 125.609,20.386 177.462,18.022 177.574,17.854 128.726,15.932 128.841,15.767 180.672,13.434 180.783,13.278 131.943,11.342 132.053,11.188 183.877,8.849 184,8.686 130.57,6.508 98.127,52.844 154.905,50.216 155.028,50.048 106.198,48.103 106.32,47.931 158.122,45.637 158.233,45.481 109.419,43.511 109.536,43.344 " id="polygon10" style="fill:#ed1f24;stroke:none" transform="translate(-8.877001,-6.503)"/>
  <path d="m 86.340999,71.079 c -1.357,1.344 -2.438,2.065 -4.384,2.065 l -1.667,2.321 h 2.497 l -2.354,3.447 h -2.072 l -1.955,2.753 h 8.076 l 1.957,-2.753 h -2.328 l 5.422,-7.833 h -3.192 z" id="path12" style="fill:#000000;stroke:none" inkscape:connector-curvature="0"/>
  <path style="fill:#000000;stroke:none" d="m 65.475999,71.634 -3.461,0 -7.015,10.027 3.461,0 z" id="polygon14" inkscape:connector-curvature="0"/>
  <path d="m 48.724999,81.874 c 1.242,0 3.615,0.018 5.497,-2.626 0.778,-1.108 3.705,-5.264 3.705,-5.264 h -3.452 c 0,0 -3.001,4.291 -3.271,4.673 -0.88,1.262 -2.047,0.674 -1.49,-0.12 0.301,-0.421 3.191,-4.554 3.191,-4.554 h -3.479 c 0,0 -2.276,3.188 -2.902,4.094 -1.619,2.338 0.109,3.797 2.201,3.797 z" id="path16" style="fill:#000000;stroke:none" inkscape:connector-curvature="0"/>
  <path d="M -1.0313074e-6,81.661 H 3.822999 l 2.436,-3.479 h 3.119 l 1.993,-2.845 h -3.124 l 1.511,-2.154 c 2.4,0 3.452,-0.552 5.313,-2.787 h -7.17 L -1.0313074e-6,81.661 z" id="path18" style="fill:#000000;stroke:none" inkscape:connector-curvature="0"/>
  <path d="m 18.329999,73.658 c -2.154,0 -4.563,1.348 -5.986,3.438 -1.516,2.223 -1.312,4.75 1.719,4.75 2.936,0 5.388,-1.97 6.472,-3.999 1.317,-2.465 0.561,-4.189 -2.205,-4.189 z m -3.312,5.732 c -1.572,-0.181 1.056,-3.818 2.432,-3.452 1.515,0.403 -1.066,3.615 -2.432,3.452 z" id="path20" style="fill:#000000;stroke:none" inkscape:connector-curvature="0"/>
  <path d="m 25.983999,77.848 c 0.677,-0.964 2.47,-2.104 3.606,-0.611 l 2.665,-2.66 c 0,0 -0.857,-1.973 -4.325,0.504 l 0.729,-1.097 h -3.426 l -5.375,7.677 h 3.438 c 0.001,0 2.41,-3.415 2.688,-3.813 z" id="path22" style="fill:#000000;stroke:none" inkscape:connector-curvature="0"/>
  <path d="m 38.762999,81.657 h 3.375 c 0,0 3.082,-4.375 3.493,-4.972 1.76,-2.541 -1.307,-3.92 -4.16,-1.71 -0.57,-1.844 -2.934,-1.039 -4.583,0.19 l 0.819,-1.167 h -3.418 l -5.366,7.663 h 3.354 c 0,0 2.975,-4.217 3.262,-4.632 0.722,-1.039 2.108,-0.817 1.542,0 -0.269,0.384 -3.239,4.628 -3.239,4.628 l 3.377,0.004 c 0,0 2.961,-4.217 3.253,-4.632 0.724,-1.039 2.122,-0.817 1.554,0 -0.268,0.384 -3.263,4.628 -3.263,4.628 z" id="path24" style="fill:#000000;stroke:none" inkscape:connector-curvature="0"/>
  <path d="m 69.917999,81.661 5.375,-7.664 h -3.502 l -0.477,0.615 c -0.15,-0.398 -0.695,-0.867 -1.663,-0.867 -3.018,0 -5.468,2.215 -6.422,4.343 -0.955,2.122 -0.316,3.762 1.561,3.762 1.18,0 2.219,-0.724 2.585,-0.968 l -0.552,0.778 h 3.095 z m -3.153,-2.196 c -0.78,-0.088 -0.816,-0.866 -0.122,-1.862 0.636,-0.9 1.859,-1.78 2.554,-1.59 1.515,0.402 -1.065,3.594 -2.432,3.452 z" id="path26" style="fill:#000000;stroke:none" inkscape:connector-curvature="0"/>
</svg>